<?xml version="1.0" encoding="UTF-8"?>
<!DOCTYPE svg PUBLIC "-//W3C//DTD SVG 1.1//EN" "http://www.w3.org/Graphics/SVG/1.1/DTD/svg11.dtd">
<!-- Creator: CorelDRAW 2021 (64-Bit) -->
<svg xmlns="http://www.w3.org/2000/svg" xml:space="preserve" width="8.7056mm" height="8.7056mm" version="1.1" style="shape-rendering:geometricPrecision; text-rendering:geometricPrecision; image-rendering:optimizeQuality; fill-rule:evenodd; clip-rule:evenodd"
viewBox="0 0 2008.89 2008.89"
 xmlns:xlink="http://www.w3.org/1999/xlink"
 xmlns:xodm="http://www.corel.com/coreldraw/odm/2003">
 <defs>
  <style type="text/css">
   <![CDATA[
    .str0 {stroke:#D57253;stroke-width:162.82;stroke-linecap:round;stroke-linejoin:round;stroke-miterlimit:22.9256}
    .fil0 {fill:none}
    .fil1 {fill:#D57253}
   ]]>
  </style>
 </defs>
 <g id="Warstwa_x0020_1">
  <metadata id="CorelCorpID_0Corel-Layer"/>
  <g id="_2232214840816">
   <circle class="fil0 str0" cx="1004.45" cy="1004.45" r="923.03"/>
   <path class="fil1" d="M1178.44 1465.11c6.53,-5.45 13.04,-11.24 19.52,-17.35l21.53 -21.55 493.94 -493.94c35.91,-35.88 35.91,-94.63 0.02,-130.52l-114.25 -114.23c-35.86,-35.88 -94.63,-35.91 -130.52,0l-463.5 463.48 -465.02 -465.02c-35.88,-35.88 -94.63,-35.88 -130.52,0l-114.23 114.23c-35.88,35.88 -35.91,94.63 0,130.54l465.02 465.02 41.56 41.56c13.08,11.98 26.12,22.85 39.14,32.61 116.58,87.62 229,86 337.3,-4.82z"/>
  </g>
 </g>
</svg>
