<?xml version="1.0" encoding="UTF-8"?>
<!DOCTYPE svg PUBLIC "-//W3C//DTD SVG 1.1//EN" "http://www.w3.org/Graphics/SVG/1.1/DTD/svg11.dtd">
<!-- Creator: CorelDRAW 2021 (64-Bit) -->
<svg xmlns="http://www.w3.org/2000/svg" xml:space="preserve" width="8.7056mm" height="8.7056mm" version="1.1" style="shape-rendering:geometricPrecision; text-rendering:geometricPrecision; image-rendering:optimizeQuality; fill-rule:evenodd; clip-rule:evenodd"
viewBox="0 0 251.27 251.27"
 xmlns:xlink="http://www.w3.org/1999/xlink"
 xmlns:xodm="http://www.corel.com/coreldraw/odm/2003">
 <defs>
  <style type="text/css">
   <![CDATA[
    .str0 {stroke:#D57253;stroke-width:20.37;stroke-linecap:round;stroke-linejoin:round;stroke-miterlimit:22.9256}
    .fil0 {fill:none}
    .fil1 {fill:#D57253}
   ]]>
  </style>
 </defs>
 <g id="Warstwa_x0020_1">
  <metadata id="CorelCorpID_0Corel-Layer"/>
  <g id="_2232207443168">
   <circle class="fil0 str0" cx="125.63" cy="125.63" r="115.45"/>
   <path class="fil1" d="M103.87 68.02c-0.82,0.68 -1.63,1.41 -2.44,2.17l-2.69 2.7 -61.78 61.78c-4.49,4.49 -4.49,11.84 -0,16.32l14.29 14.29c4.49,4.49 11.84,4.49 16.32,0l57.97 -57.97 58.16 58.16c4.49,4.49 11.84,4.49 16.32,0l14.29 -14.29c4.49,-4.49 4.49,-11.84 0,-16.33l-58.16 -58.16 -5.2 -5.2c-1.64,-1.5 -3.27,-2.86 -4.9,-4.08 -14.58,-10.96 -28.64,-10.76 -42.19,0.6z"/>
  </g>
 </g>
</svg>
